<?xml version="1.0" encoding="utf-8"?>
<!-- Generator: Adobe Illustrator 19.1.0, SVG Export Plug-In . SVG Version: 6.00 Build 0)  -->
<svg version="1.1" id="Layer_1" xmlns="http://www.w3.org/2000/svg" xmlns:xlink="http://www.w3.org/1999/xlink" x="0px" y="0px"
	 viewBox="0 0 519 472" style="enable-background:new 0 0 519 472;" xml:space="preserve">
<style type="text/css">
	.st0{font-family:'ArialMT';}
	.st1{font-size:5.9999px;}
	.st2{font-size:4.0001px;}
	.st3{fill:#FF931E;}
	.st4{fill:#F7931E;}
	.st5{font-size:8px;}
	.st6{fill:#FFFFFF;}
	.st7{font-family:'Arial-BoldMT';}
	.st8{opacity:0.1961;fill:#0071BC;enable-background:new    ;}
	.st9{opacity:0.1961;enable-background:new    ;}
	.st10{fill:#999999;}
	.st11{font-size:2.4999px;}
	.st12{fill:#00FF00;}
	.st13{fill:#666666;}
	.st14{font-size:3.0001px;}
	.st15{fill:#96AFCF;}
	.st16{fill:#FFFF62;}
	.st17{fill:#7395BF;}
	.st18{fill:#3475CD;}
	.st19{fill:#808080;}
</style>
<text transform="matrix(1 0 0 1 395.7626 24.4213)" class="st0 st1">202</text>
<text transform="matrix(1 0 0 1 473.4452 355.9468)" class="st0 st2">Room </text>
<text transform="matrix(1 0 0 1 475.4452 360.7466)" class="st0 st2">208</text>
<text transform="matrix(1 0 0 1 453.248 443.2506)" class="st0 st1">209</text>
<text transform="matrix(1 0 0 1 38.6864 37.4624)" class="st3 st0 st1">01</text>
<text transform="matrix(1 0 0 1 47.2196 37.3227)" class="st3 st0 st1">02</text>
<text transform="matrix(1 0 0 1 56.7094 37.3695)" class="st3 st0 st1">03</text>
<text transform="matrix(1 0 0 1 64.9594 37.5131)" class="st3 st0 st1">04</text>
<text transform="matrix(1 0 0 1 73.5844 37.5073)" class="st3 st0 st1">05</text>
<text transform="matrix(1 0 0 1 82.2094 37.4174)" class="st3 st0 st1">06</text>
<text transform="matrix(1 0 0 1 91.2094 37.7973)" class="st3 st0 st1">07</text>
<text transform="matrix(1 0 0 1 99.6465 37.8842)" class="st3 st0 st1">08</text>
<text transform="matrix(1 0 0 1 108.4594 37.8842)" class="st3 st0 st1">09</text>
<text transform="matrix(1 0 0 1 116.7094 37.603)" class="st3 st0 st1">10</text>
<text transform="matrix(1 0 0 1 126.0844 37.6498)" class="st3 st0 st1">11</text>
<text transform="matrix(1 0 0 1 134.3344 37.5629)" class="st3 st0 st1">12</text>
<text transform="matrix(1 0 0 1 143.3344 37.5073)" class="st3 st0 st1">13</text>
<text transform="matrix(1 0 0 1 152.3344 37.5424)" class="st3 st0 st1">14</text>
<text transform="matrix(1 0 0 1 160.2094 37.5541)" class="st0 st1">15</text>
<text transform="matrix(1 0 0 1 169.2094 37.603)" class="st3 st0 st1">16</text>
<text transform="matrix(1 0 0 1 178.2094 37.4682)" class="st3 st0 st1">17</text>
<text transform="matrix(1 0 0 1 187.1044 23.1382)" class="st0 st1">18</text>
<text transform="matrix(1 0 0 1 196.1044 23.3765)" class="st0 st1">19</text>
<text transform="matrix(1 0 0 1 204.6464 37.6977)" class="st3 st0 st1">20</text>
<text transform="matrix(1 0 0 1 214.0214 37.7445)" class="st4 st0 st1">21</text>
<text transform="matrix(1 0 0 1 222.8344 37.7973)" class="st3 st0 st1">22</text>
<text transform="matrix(1 0 0 1 231.2714 37.9331)" class="st3 st0 st1">23</text>
<text transform="matrix(1 0 0 1 240.0844 37.89)" class="st3 st0 st1">24</text>
<text transform="matrix(1 0 0 1 248.7094 37.9174)" class="st3 st0 st1">25</text>
<text transform="matrix(1 0 0 1 257.3344 38.1195)" class="st3 st0 st1">26</text>
<text transform="matrix(1 0 0 1 266.3344 37.9291)" class="st3 st0 st1">27</text>
<text transform="matrix(1 0 0 1 274.9594 37.7973)" class="st3 st0 st1">28</text>
<text transform="matrix(1 0 0 1 283.3964 37.7973)" class="st3 st0 st1">29</text>
<text transform="matrix(1 0 0 1 292.3964 37.6977)" class="st3 st0 st1">30</text>
<text transform="matrix(1 0 0 1 301.5849 37.89)" class="st3 st0 st1">31</text>
<text transform="matrix(1 0 0 1 310.3964 37.7924)" class="st3 st0 st1">32</text>
<text transform="matrix(1 0 0 1 319.0214 37.8823)" class="st3 st0 st1">33</text>
<text transform="matrix(1 0 0 1 327.6464 38.0727)" class="st3 st0 st1">34</text>
<text transform="matrix(1 0 0 1 336.0849 45.4291)" class="st3 st0 st1">35</text>
<text transform="matrix(1 0 0 1 344.8964 53.5394)" class="st3 st0 st1">36</text>
<text transform="matrix(1 0 0 1 354.0849 62.5443)" class="st3 st0 st1">37</text>
<text transform="matrix(1 0 0 1 362.3349 62.5892)" class="st3 st0 st1">38</text>
<text transform="matrix(1 0 0 1 371.3349 62.7778)" class="st3 st0 st1">39</text>
<text transform="matrix(1 0 0 1 379.9599 62.8276)" class="st3 st0 st1">40</text>
<text transform="matrix(1 0 0 1 388.9599 62.4448)" class="st3 st0 st1">41</text>
<text transform="matrix(1 0 0 1 397.0214 62.4945)" class="st3 st0 st1">42</text>
<text transform="matrix(1 0 0 1 406.2098 62.5394)" class="st3 st0 st1">43</text>
<text transform="matrix(1 0 0 1 415.2098 62.4448)" class="st3 st0 st1">44</text>
<text transform="matrix(1 0 0 1 423.6465 62.5473)" class="st3 st0 st1">45</text>
<text transform="matrix(1 0 0 1 432.2715 62.5932)" class="st3 st0 st1">46</text>
<text transform="matrix(1 0 0 1 213.0844 21.7573)" class="st3 st0 st1">AA</text>
<text transform="matrix(1 0 0 1 213.2714 29.4496)" class="st4 st0 st1">AB</text>
<text transform="matrix(1 0 0 1 212.5214 45.7094)" class="st4 st0 st1">AD</text>
<text transform="matrix(1 0 0 1 212.8964 53.6674)" class="st3 st0 st1">AE</text>
<text transform="matrix(1 0 0 1 213.2714 62.2631)" class="st3 st0 st1">AF</text>
<text transform="matrix(1 0 0 1 212.8964 70.4223)" class="st3 st0 st1">AG</text>
<text transform="matrix(1 0 0 1 212.8964 78.4496)" class="st3 st0 st1">AH</text>
<text transform="matrix(1 0 0 1 213.8344 86.0727)" class="st3 st0 st1">AI</text>
<text transform="matrix(1 0 0 1 213.2714 94.5092)" class="st3 st0 st1">AJ</text>
<text transform="matrix(1 0 0 1 212.5214 102.7573)" class="st3 st0 st1">AK</text>
<text transform="matrix(1 0 0 1 213.0844 110.7299)" class="st3 st0 st1">AL</text>
<text transform="matrix(1 0 0 1 212.3344 119.265)" class="st3 st0 st1">AM</text>
<text transform="matrix(1 0 0 1 212.5214 126.8597)" class="st3 st0 st1">AN</text>
<text transform="matrix(1 0 0 1 212.7094 135.0581)" class="st3 st0 st1">AO</text>
<text transform="matrix(1 0 0 1 212.8964 143.7748)" class="st3 st0 st1">AP</text>
<text transform="matrix(1 0 0 1 212.7094 151.1791)" class="st3 st0 st1">AQ</text>
<text transform="matrix(1 0 0 1 213.0844 159.7182)" class="st3 st0 st1">AR</text>
<text transform="matrix(1 0 0 1 212.7094 167.8227)" class="st3 st0 st1">AS</text>
<text transform="matrix(1 0 0 1 213.2714 176.0727)" class="st3 st0 st1">AT</text>
<text transform="matrix(1 0 0 1 212.7094 184.6079)" class="st3 st0 st1">AU</text>
<text transform="matrix(1 0 0 1 212.7094 192.3823)" class="st3 st0 st1">AV</text>
<text transform="matrix(1 0 0 1 229.4794 202.1714)" class="st0 st1">AW</text>
<text transform="matrix(1 0 0 1 212.7094 208.8842)" class="st3 st0 st1">AX</text>
<text transform="matrix(1 0 0 1 212.7094 217.3227)" class="st3 st0 st1">AY</text>
<text transform="matrix(1 0 0 1 213.2714 224.7747)" class="st3 st0 st1">AZ</text>
<text transform="matrix(1 0 0 1 212.8964 232.9331)" class="st3 st0 st1">BA</text>
<text transform="matrix(1 0 0 1 213.0844 241.4624)" class="st3 st0 st1">BB</text>
<text transform="matrix(1 0 0 1 212.5214 249.3432)" class="st3 st0 st1">BC</text>
<text transform="matrix(1 0 0 1 212.7094 257.2573)" class="st3 st0 st1">BD</text>
<text transform="matrix(1 0 0 1 212.8964 265.603)" class="st3 st0 st1">BE</text>
<text transform="matrix(1 0 0 1 213.4594 273.9496)" class="st3 st0 st1">BF</text>
<text transform="matrix(1 0 0 1 212.5214 281.2592)" class="st3 st0 st1">BG</text>
<text transform="matrix(1 0 0 1 212.7094 289.2348)" class="st3 st0 st1">BH</text>
<text transform="matrix(1 0 0 1 213.4594 297.6674)" class="st3 st0 st1">BI</text>
<text transform="matrix(1 0 0 1 213.2714 306.3881)" class="st3 st0 st1">BJ</text>
<text transform="matrix(1 0 0 1 212.8964 314.0698)" class="st3 st0 st1">BK</text>
<text transform="matrix(1 0 0 1 213.4594 322.3246)" class="st3 st0 st1">BL</text>
<text transform="matrix(1 0 0 1 211.7714 330.1498)" class="st3 st0 st1">BM</text>
<text transform="matrix(1 0 0 1 212.5214 338.0698)" class="st3 st0 st1">BN</text>
<text transform="matrix(1 0 0 1 212.3344 347.1196)" class="st3 st0 st1">BO</text>
<text transform="matrix(1 0 0 1 213.2714 355.2729)" class="st3 st0 st1">BP</text>
<text transform="matrix(1 0 0 1 212.1464 362.9624)" class="st3 st0 st1">BQ</text>
<text transform="matrix(1 0 0 1 212.7094 371.3598)" class="st3 st0 st1">BR</text>
<text transform="matrix(1 0 0 1 213.0844 379.3246)" class="st3 st0 st1">BS</text>
<text transform="matrix(1 0 0 1 213.2714 388.1674)" class="st3 st0 st1">BT</text>
<text transform="matrix(1 0 0 1 212.5214 396.0151)" class="st3 st0 st1">BU</text>
<text transform="matrix(1 0 0 1 213.0844 404.4946)" class="st3 st0 st1">BV</text>
<text transform="matrix(1 0 0 1 212.2714 412.2329)" class="st3 st0 st1">BW</text>
<text transform="matrix(1 0 0 1 213.0844 420.5278)" class="st3 st0 st1">BX</text>
<text transform="matrix(1 0 0 1 213.0844 428.1645)" class="st3 st0 st1">BY</text>
<text transform="matrix(1 0 0 1 213.2714 436.3725)" class="st3 st0 st1">BZ</text>
<text transform="matrix(1 0 0 1 213.0844 444.7145)" class="st3 st0 st1">CA</text>
<text transform="matrix(1 0 0 1 212.8964 451.9801)" class="st3 st0 st1">CB</text>
<text transform="matrix(1 0 0 1 212.5214 459.8551)" class="st3 st0 st1">CC</text>
<text transform="matrix(1 0 0 1 221.3344 467.2594)" class="st0 st1">CD</text>
<text transform="matrix(1 0 0 1 289.8564 28.4496)" class="st3 st0 st5">Stultz</text>
<text transform="matrix(1 0 0 1 128.7514 28.265)" class="st0 st5">Stultz</text>
<text transform="matrix(1 0 0 1 184.9335 130.5884)" class="st6 st7 st2">SP2F</text>
<text transform="matrix(1 0 0 1 48.0844 165.7299)" class="st0 st1">S</text>
<text transform="matrix(1 0 0 1 48.0844 172.9291)" class="st0 st1">t</text>
<text transform="matrix(1 0 0 1 48.0844 180.1293)" class="st0 st1">u</text>
<text transform="matrix(1 0 0 1 48.0946 187.3295)" class="st0 st1">l</text>
<text transform="matrix(1 0 0 1 48.0844 194.5288)" class="st0 st1">t</text>
<text transform="matrix(1 0 0 1 48.0844 201.7289)" class="st0 st1">z</text>
<text transform="matrix(1 0 0 1 234.4592 169.9487)" class="st0 st1">S</text>
<text transform="matrix(1 0 0 1 234.4592 177.1479)" class="st0 st1">t</text>
<text transform="matrix(1 0 0 1 234.4592 184.3481)" class="st0 st1">u</text>
<text transform="matrix(1 0 0 1 234.4695 191.5483)" class="st0 st1">l</text>
<text transform="matrix(1 0 0 1 234.4592 198.7485)" class="st0 st1">t</text>
<text transform="matrix(1 0 0 1 234.4592 205.9487)" class="st0 st1">z</text>
<text transform="matrix(1 0 0 1 413.7096 134.6831)" class="st8 st0 st1">AO</text>
<text transform="matrix(1 0 0 1 413.8961 143.3998)" class="st8 st0 st1">AP</text>
<text transform="matrix(1 0 0 1 413.7096 150.8041)" class="st8 st0 st1">AQ</text>
<text transform="matrix(1 0 0 1 414.0846 159.3432)" class="st8 st0 st1">AR</text>
<text transform="matrix(1 0 0 1 414.2711 69.8597)" class="st8 st0 st1">AG</text>
<text transform="matrix(1 0 0 1 414.2711 77.8881)" class="st8 st0 st1">AH</text>
<text transform="matrix(1 0 0 1 415.2096 85.5092)" class="st8 st0 st1">AI</text>
<text transform="matrix(1 0 0 1 414.6461 93.9477)" class="st8 st0 st1">AJ</text>
<text transform="matrix(1 0 0 1 413.8961 102.1948)" class="st8 st0 st1">AK</text>
<text transform="matrix(1 0 0 1 414.4596 110.1674)" class="st8 st0 st1">AL</text>
<text transform="matrix(1 0 0 1 413.7096 118.7026)" class="st8 st0 st1">AM</text>
<text transform="matrix(1 0 0 1 413.7096 127.0473)" class="st8 st0 st1">AN</text>
<text transform="matrix(1 0 0 1 414.2711 168.0092)" class="st8 st0 st1">AS</text>
<text transform="matrix(1 0 0 1 414.8346 176.2592)" class="st8 st0 st1">AT</text>
<text transform="matrix(1 0 0 1 414.2711 184.7943)" class="st8 st0 st1">AU</text>
<text transform="matrix(1 0 0 1 414.2711 192.5698)" class="st8 st0 st1">AV</text>
<text transform="matrix(1 0 0 1 414.0846 201.3881)" class="st8 st0 st1">AW</text>
<text transform="matrix(1 0 0 1 414.2711 209.0727)" class="st8 st0 st1">AX</text>
<text transform="matrix(1 0 0 1 414.2711 217.5092)" class="st8 st0 st1">AY</text>
<text transform="matrix(1 0 0 1 414.8346 224.9624)" class="st8 st0 st1">AZ</text>
<text transform="matrix(1 0 0 1 414.4596 233.1195)" class="st8 st0 st1">BA</text>
<text transform="matrix(1 0 0 1 414.6461 241.6497)" class="st8 st0 st1">BB</text>
<text transform="matrix(1 0 0 1 414.0846 249.5297)" class="st8 st0 st1">BC</text>
<text transform="matrix(1 0 0 1 414.2711 257.4448)" class="st8 st0 st1">BD</text>
<text transform="matrix(1 0 0 1 414.4596 265.7895)" class="st8 st0 st1">BE</text>
<text transform="matrix(1 0 0 1 415.0211 274.1381)" class="st8 st0 st1">BF</text>
<text transform="matrix(1 0 0 1 414.0846 281.4477)" class="st8 st0 st1">BG</text>
<text transform="matrix(1 0 0 1 414.2711 289.4223)" class="st8 st0 st1">BH</text>
<text transform="matrix(1 0 0 1 415.3961 297.4799)" class="st8 st0 st1">BI</text>
<text transform="matrix(1 0 0 1 415.2096 306.1996)" class="st8 st0 st1">BJ</text>
<text transform="matrix(1 0 0 1 414.8346 313.8823)" class="st8 st0 st1">BK</text>
<text transform="matrix(1 0 0 1 288.3542 316.9214)" class="st9 st0 st1">BL</text>
<text transform="matrix(1 0 0 1 413.7096 329.9624)" class="st8 st0 st1">BM</text>
<text transform="matrix(1 0 0 1 414.4596 337.8823)" class="st8 st0 st1">BN</text>
<text transform="matrix(1 0 0 1 414.2711 346.9331)" class="st8 st0 st1">BO</text>
<text transform="matrix(1 0 0 1 414.0846 395.8276)" class="st8 st0 st1">BU</text>
<text transform="matrix(1 0 0 1 414.6461 404.3081)" class="st8 st0 st1">BV</text>
<text transform="matrix(1 0 0 1 413.8346 412.0443)" class="st8 st0 st1">BW</text>
<text transform="matrix(1 0 0 1 414.6461 420.3393)" class="st8 st0 st1">BX</text>
<text transform="matrix(1 0 0 1 414.6461 427.978)" class="st8 st0 st1">BY</text>
<text transform="matrix(1 0 0 1 414.8346 436.185)" class="st8 st0 st1">BZ</text>
<text transform="matrix(1 0 0 1 414.6461 444.527)" class="st8 st0 st1">CA</text>
<text transform="matrix(1 0 0 1 414.4596 451.7926)" class="st8 st0 st1">CB</text>
<text transform="matrix(1 0 0 1 414.0846 459.6676)" class="st8 st0 st1">CC</text>
<text transform="matrix(1 0 0 1 414.0846 467.0719)" class="st8 st0 st1">CD</text>
<text transform="matrix(1 0 0 1 39.2443 330.5248)" class="st8 st0 st1">01</text>
<text transform="matrix(1 0 0 1 47.359 330.5727)" class="st8 st0 st1">02</text>
<text transform="matrix(1 0 0 1 55.7711 330.6196)" class="st8 st0 st1">03</text>
<text transform="matrix(1 0 0 1 64.3961 330.5746)" class="st8 st0 st1">04</text>
<text transform="matrix(1 0 0 1 73.0211 330.5698)" class="st8 st0 st1">05</text>
<text transform="matrix(1 0 0 1 82.3961 330.4799)" class="st8 st0 st1">06</text>
<text transform="matrix(1 0 0 1 91.2091 330.4848)" class="st8 st0 st1">07</text>
<text transform="matrix(1 0 0 1 99.6461 330.5727)" class="st8 st0 st1">08</text>
<text transform="matrix(1 0 0 1 107.8961 330.5727)" class="st8 st0 st1">09</text>
<text transform="matrix(1 0 0 1 117.2711 330.478)" class="st8 st0 st1">10</text>
<text transform="matrix(1 0 0 1 126.0841 330.7124)" class="st8 st0 st1">11</text>
<text transform="matrix(1 0 0 1 134.3341 330.6245)" class="st8 st0 st1">12</text>
<text transform="matrix(1 0 0 1 143.3341 330.5698)" class="st8 st0 st1">13</text>
<text transform="matrix(1 0 0 1 160.2092 330.6176)" class="st8 st0 st1">15</text>
<text transform="matrix(1 0 0 1 178.2092 330.9047)" class="st8 st0 st1">17</text>
<text transform="matrix(1 0 0 1 152.7092 330.7924)" class="st8 st0 st1">14</text>
<text transform="matrix(1 0 0 1 169.5842 330.853)" class="st8 st0 st1">16</text>
<text transform="matrix(1 0 0 1 186.8342 330.5727)" class="st8 st0 st1">18</text>
<text transform="matrix(1 0 0 1 195.4592 330.9047)" class="st8 st0 st1">19</text>
<text transform="matrix(1 0 0 1 204.4592 330.5727)" class="st8 st0 st1">20</text>
<text transform="matrix(1 0 0 1 222.6461 330.6723)" class="st8 st0 st1">22</text>
<text transform="matrix(1 0 0 1 231.0842 330.8081)" class="st8 st0 st1">23</text>
<text transform="matrix(1 0 0 1 239.8961 330.7651)" class="st8 st0 st1">24</text>
<text transform="matrix(1 0 0 1 248.5211 330.7924)" class="st8 st0 st1">25</text>
<text transform="matrix(1 0 0 1 257.1461 330.9946)" class="st8 st0 st1">26</text>
<text transform="matrix(1 0 0 1 266.1461 330.8041)" class="st8 st0 st1">27</text>
<text transform="matrix(1 0 0 1 274.7711 330.6723)" class="st8 st0 st1">28</text>
<text transform="matrix(1 0 0 1 283.2092 330.6723)" class="st8 st0 st1">29</text>
<text transform="matrix(1 0 0 1 310.2097 330.6674)" class="st8 st0 st1">32</text>
<text transform="matrix(1 0 0 1 318.8347 330.7573)" class="st8 st0 st1">33</text>
<text transform="matrix(1 0 0 1 327.4597 330.9477)" class="st8 st0 st1">34</text>
<text transform="matrix(1 0 0 1 336.4597 330.9926)" class="st8 st0 st1">35</text>
<text transform="matrix(1 0 0 1 345.0847 331.228)" class="st8 st0 st1">36</text>
<text transform="matrix(1 0 0 1 354.0847 331.4194)" class="st8 st0 st1">37</text>
<text transform="matrix(1 0 0 1 362.3347 331.4643)" class="st8 st0 st1">38</text>
<text transform="matrix(1 0 0 1 371.3347 331.6528)" class="st8 st0 st1">39</text>
<text transform="matrix(1 0 0 1 379.9597 331.7026)" class="st8 st0 st1">40</text>
<text transform="matrix(1 0 0 1 388.9597 331.3198)" class="st8 st0 st1">41</text>
<text transform="matrix(1 0 0 1 397.0211 331.3696)" class="st8 st0 st1">42</text>
<text transform="matrix(1 0 0 1 406.2096 331.4145)" class="st9 st0 st1">43</text>
<text transform="matrix(1 0 0 1 423.6461 331.4223)" class="st8 st0 st1">45</text>
<text transform="matrix(1 0 0 1 432.2711 331.4682)" class="st8 st0 st1">46</text>
<text transform="matrix(1 0 0 1 143.3341 460.6236)" class="st3 st7 st1">13</text>
<text transform="matrix(1 0 0 1 160.2092 460.7418)" class="st3 st7 st1">15</text>
<text transform="matrix(1 0 0 1 178.2092 461.0299)" class="st3 st7 st1">17</text>
<text transform="matrix(1 0 0 1 187.1042 460.3882)" class="st3 st7 st1">18</text>
<text transform="matrix(1 0 0 1 195.4592 460.2799)" class="st3 st7 st1">19</text>
<text transform="matrix(1 0 0 1 204.4592 459.9469)" class="st3 st7 st1">20</text>
<text transform="matrix(1 0 0 1 222.6461 460.0475)" class="st7 st1">22</text>
<text transform="matrix(1 0 0 1 231.0842 460.1823)" class="st3 st7 st1">23</text>
<text transform="matrix(1 0 0 1 239.8961 460.1403)" class="st3 st7 st1">24</text>
<text transform="matrix(1 0 0 1 248.5211 460.1676)" class="st3 st7 st1">25</text>
<text transform="matrix(1 0 0 1 257.1461 460.3698)" class="st3 st7 st1">26</text>
<text transform="matrix(1 0 0 1 266.1461 460.1793)" class="st3 st7 st1">27</text>
<text transform="matrix(1 0 0 1 274.7711 460.0475)" class="st3 st7 st1">28</text>
<text transform="matrix(1 0 0 1 283.2092 460.0475)" class="st3 st7 st1">29</text>
<text transform="matrix(1 0 0 1 292.2097 459.9469)" class="st3 st7 st1">30</text>
<text transform="matrix(1 0 0 1 301.3961 460.1403)" class="st3 st7 st1">31</text>
<text transform="matrix(1 0 0 1 310.2097 460.0426)" class="st3 st7 st1">32</text>
<text transform="matrix(1 0 0 1 318.8347 460.1325)" class="st3 st7 st1">33</text>
<text transform="matrix(1 0 0 1 327.4597 460.3219)" class="st3 st7 st1">34</text>
<text transform="matrix(1 0 0 1 336.4597 460.3668)" class="st3 st7 st1">35</text>
<text transform="matrix(1 0 0 1 345.0847 460.6022)" class="st3 st7 st1">36</text>
<text transform="matrix(1 0 0 1 354.0847 460.7946)" class="st3 st7 st1">37</text>
<text transform="matrix(1 0 0 1 362.3347 460.8395)" class="st3 st7 st1">38</text>
<text transform="matrix(1 0 0 1 371.3347 461.027)" class="st3 st7 st1">39</text>
<text transform="matrix(1 0 0 1 379.9597 461.0778)" class="st3 st7 st1">40</text>
<text transform="matrix(1 0 0 1 388.9597 460.695)" class="st3 st7 st1">41</text>
<text transform="matrix(1 0 0 1 397.0211 460.7448)" class="st3 st7 st1">42</text>
<text transform="matrix(1 0 0 1 406.2096 460.7897)" class="st3 st7 st1">43</text>
<text transform="matrix(1 0 0 1 152.3342 460.5426)" class="st7 st1">14</text>
<text transform="matrix(1 0 0 1 169.2092 460.6022)" class="st3 st7 st1">16</text>
<text transform="matrix(1 0 0 1 36.8341 53.8549)" class="st8 st0 st1">AE</text>
<text transform="matrix(1 0 0 1 37.2091 62.4496)" class="st8 st0 st1">AF</text>
<text transform="matrix(1 0 0 1 36.8341 70.6097)" class="st8 st0 st1">AG</text>
<text transform="matrix(1 0 0 1 36.8341 78.6381)" class="st8 st0 st1">AH</text>
<g id="shape4017-11130" transform="translate(145.417,-448.691)">
	<title>Sheet.4017</title>
	<desc>AI</desc>
	<v:textBlock  v:margins="rect(4,4,4,4)"></v:textBlock>
	<v:textRect  height="4.9375" width="13.69" cx="6.84375" cy="609.531"></v:textRect>
	<text transform="matrix(1 0 0 1 -107.6459 534.9502)" class="st8 st0 st1">AI</text>
</g>
<g id="shape4018-11133" transform="translate(144.855,-440.253)">
	<title>Sheet.4018</title>
	<desc>AJ</desc>
	<v:textBlock  v:margins="rect(4,4,4,4)"></v:textBlock>
	<v:textRect  height="4.9375" width="15.1" cx="7.54688" cy="609.531"></v:textRect>
	<text transform="matrix(1 0 0 1 -107.6459 534.9507)" class="st8 st0 st1">AJ</text>
</g>
<g id="shape4019-11136" transform="translate(144.105,-431.816)">
	<title>Sheet.4019</title>
	<desc>AK</desc>
	<v:textBlock  v:margins="rect(4,4,4,4)"></v:textBlock>
	<v:textRect  height="5.3125" width="16.32" cx="8.15625" cy="609.344"></v:textRect>
	<text transform="matrix(1 0 0 1 -107.6459 534.7609)" class="st8 st0 st1">AK</text>
</g>
<g id="shape4020-11139" transform="translate(144.667,-424.503)">
	<title>Sheet.4020</title>
	<desc>AL</desc>
	<v:textBlock  v:margins="rect(4,4,4,4)"></v:textBlock>
	<v:textRect  height="4" width="16.32" cx="8.15625" cy="610"></v:textRect>
	<text transform="matrix(1 0 0 1 -107.6459 535.4203)" class="st8 st0 st1">AL</text>
</g>
<g id="shape4021-11142" transform="translate(143.917,-415.878)">
	<title>Sheet.4021</title>
	<desc>AM</desc>
	<v:textBlock  v:margins="rect(4,4,4,4)"></v:textBlock>
	<v:textRect  height="4.1875" width="17.63" cx="8.8125" cy="609.906"></v:textRect>
	<text transform="matrix(1 0 0 1 -107.6459 535.3306)" class="st8 st0 st1">AM</text>
</g>
<text transform="matrix(1 0 0 1 36.4591 127.0473)" class="st8 st0 st1">AN</text>
<text transform="matrix(1 0 0 1 36.6461 135.2445)" class="st8 st0 st1">AO</text>
<text transform="matrix(1 0 0 1 36.8341 143.9624)" class="st8 st0 st1">AP</text>
<text transform="matrix(1 0 0 1 36.6461 151.3676)" class="st8 st0 st1">AQ</text>
<text transform="matrix(1 0 0 1 37.0211 159.9047)" class="st8 st0 st1">AR</text>
<text transform="matrix(1 0 0 1 36.6461 168.0092)" class="st8 st0 st1">AS</text>
<text transform="matrix(1 0 0 1 37.2091 176.2592)" class="st8 st0 st1">AT</text>
<text transform="matrix(1 0 0 1 36.6461 184.7943)" class="st8 st0 st1">AU</text>
<text transform="matrix(1 0 0 1 36.6461 192.5698)" class="st8 st0 st1">AV</text>
<g id="shape4031-11172" transform="translate(144.105,-334.503)">
	<title>Sheet.4031</title>
	<desc>AW</desc>
	<v:textBlock  v:margins="rect(4,4,4,4)"></v:textBlock>
	<v:textRect  height="3.0625" width="18.38" cx="9.1875" cy="610.469"></v:textRect>
	<text transform="matrix(1 0 0 1 -107.6459 535.8911)" class="st8 st0 st1">AW</text>
</g>
<g id="shape4032-11175" transform="translate(144.72,-325.543)">
	<title>Sheet.4032</title>
	<desc>AX</desc>
	<v:textBlock  v:margins="rect(4,4,4,4)"></v:textBlock>
	<v:textRect  height="3.4375" width="16.51" cx="8.25" cy="610.281"></v:textRect>
	<text transform="matrix(1 0 0 1 -107.6461 535.7007)" class="st8 st0 st1">AX</text>
</g>
<text transform="matrix(1 0 0 1 36.6461 217.5092)" class="st8 st0 st1">AY</text>
<text transform="matrix(1 0 0 1 37.2091 224.9624)" class="st8 st0 st1">AZ</text>
<text transform="matrix(1 0 0 1 36.8341 233.1195)" class="st8 st0 st1">BA</text>
<text transform="matrix(1 0 0 1 37.0211 241.6497)" class="st8 st0 st1">BB</text>
<text transform="matrix(1 0 0 1 36.4591 249.5297)" class="st8 st0 st1">BC</text>
<text transform="matrix(1 0 0 1 36.6461 257.4448)" class="st8 st0 st1">BD</text>
<text transform="matrix(1 0 0 1 36.8341 265.7895)" class="st8 st0 st1">BE</text>
<text transform="matrix(1 0 0 1 37.3961 274.1381)" class="st8 st0 st1">BF</text>
<text transform="matrix(1 0 0 1 36.4591 281.4477)" class="st8 st0 st1">BG</text>
<text transform="matrix(1 0 0 1 36.6461 289.4223)" class="st8 st0 st1">BH</text>
<text transform="matrix(1 0 0 1 37.3961 297.8549)" class="st8 st0 st1">BI</text>
<text transform="matrix(1 0 0 1 37.2091 306.5746)" class="st8 st0 st1">BJ</text>
<text transform="matrix(1 0 0 1 36.8341 314.2573)" class="st8 st0 st1">BK</text>
<text transform="matrix(1 0 0 1 37.9591 322.1381)" class="st8 st0 st1">BL</text>
<text transform="matrix(1 0 0 1 28.2091 330.7124)" class="st8 st0 st1">BM</text>
<text transform="matrix(6.123234e-17 -1 1 6.123234e-17 321.181 53.9375)" class="st10 st0 st11">2AE33</text>
<text transform="matrix(1 0 0 1 220.3617 6.7613)" class="st12 st7 st1">14/1</text>
<text transform="matrix(1 0 0 1 232.7679 13.7505)" class="st6 st7 st1">13/1</text>
<text transform="matrix(1 0 0 1 347.5287 252.4799)" class="st10 st7 st1">SP2A</text>
<text transform="matrix(1 0 0 1 181.6841 250.0395)" class="st13 st7 st1">SP2B</text>
<text transform="matrix(1 0 0 1 178.4487 221.9174)" class="st13 st7 st1">SP2C</text>
<text transform="matrix(1 0 0 1 43.3999 232.7329)" class="st7 st1">SP2E</text>
<text transform="matrix(1 0 0 1 154.2157 398.1674)" class="st6 st7 st1">SP2D</text>
<text transform="matrix(1 0 0 1 41.099 51.228)" class="st7 st14">PDU1A</text>
<text transform="matrix(1 0 0 1 41.099 54.8276)" class="st7 st14">PDU</text>
<text transform="matrix(1 0 0 1 47.433 54.8276)" class="st7 st14">1B</text>
<text transform="matrix(1 0 0 1 154.8291 207.1528)" class="st13 st0 st14">PDU7J/7K</text>
<text transform="matrix(1 0 0 1 184.7641 103.6528)" class="st0 st14">PDU13A/B</text>
<text transform="matrix(-6.123234e-17 -1 1 -6.123234e-17 67.8041 85.168)" class="st10 st7 st2">2AH04</text>
<text transform="matrix(-6.123234e-17 -1 1 -6.123234e-17 77.5541 85.168)" class="st10 st7 st2">2AH05</text>
<text transform="matrix(-6.123234e-17 -1 1 -6.123234e-17 87.3041 85.168)" class="st10 st7 st2">2AH06</text>
<text transform="matrix(-6.123234e-17 -1 1 -6.123234e-17 97.0541 85.168)" class="st10 st7 st2">2AH07</text>
<text transform="matrix(-6.123234e-17 -1 1 -6.123234e-17 106.8041 85.168)" class="st10 st7 st2">2AH08</text>
<text transform="matrix(-6.123234e-17 -1 1 -6.123234e-17 116.5541 85.168)" class="st10 st7 st2">2AH09</text>
<text transform="matrix(-6.123234e-17 -1 1 -6.123234e-17 126.3041 85.168)" class="st10 st7 st2">2AH10</text>
<text transform="matrix(6.123234e-17 -1 1 6.123234e-17 73.1986 121.998)" class="st7 st2">2AM05</text>
<text transform="matrix(6.123234e-17 -1 1 6.123234e-17 81.5004 121.998)" class="st7 st2">2AM06</text>
<text transform="matrix(6.123234e-17 -1 1 6.123234e-17 89.7523 122.1865)" class="st10 st7 st2">2AM07</text>
<text transform="matrix(6.123234e-17 -1 1 6.123234e-17 98.1889 122.1865)" class="st10 st7 st2">2AM08</text>
<text transform="matrix(6.123234e-17 -1 1 6.123234e-17 106.6646 122.373)" class="st10 st7 st2">2AM09</text>
<text transform="matrix(6.123234e-17 -1 1 6.123234e-17 115.101 122.5615)" class="st10 st7 st2">2AM10</text>
<text transform="matrix(6.123234e-17 -1 1 6.123234e-17 132.1646 122.748)" class="st10 st7 st2">2AM12</text>
<text transform="matrix(6.123234e-17 -1 1 6.123234e-17 123.6889 122.5615)" class="st10 st7 st2">2AM11</text>
<text transform="matrix(-6.123234e-17 -1 1 -6.123234e-17 86.2338 155.7139)" class="st10 st7 st2">2AQ06</text>
<text transform="matrix(-6.123234e-17 -1 1 -6.123234e-17 95.2338 156.0889)" class="st10 st7 st2">2AQ07</text>
<text transform="matrix(-6.123234e-17 -1 1 -6.123234e-17 104.2338 156.0889)" class="st10 st7 st2">2AQ08</text>
<text transform="matrix(-6.123234e-17 -1 1 -6.123234e-17 113.2338 156.0889)" class="st10 st7 st2">2AQ09</text>
<text transform="matrix(-6.123234e-17 -1 1 -6.123234e-17 130.6342 155.7139)" class="st10 st7 st2">2AQ12</text>
<text transform="matrix(-6.123234e-17 -1 1 -6.123234e-17 139.6342 155.7139)" class="st10 st7 st2">2AQ13</text>
<text transform="matrix(-6.123234e-17 -1 1 -6.123234e-17 148.6342 156.0889)" class="st10 st7 st2">2AQ14</text>
<text transform="matrix(-6.123234e-17 -1 1 -6.123234e-17 157.6342 155.7139)" class="st13 st7 st2">2AQ15</text>
<text transform="matrix(-6.123234e-17 -1 1 -6.123234e-17 121.2933 159.0479)" class="st10 st7 st2">2AQ11</text>
<text transform="matrix(6.123234e-17 -1 1 6.123234e-17 53.3754 255.498)" class="st10 st7 st2">2BD02</text>
<text transform="matrix(6.123234e-17 -1 1 6.123234e-17 62.1889 255.498)" class="st10 st7 st2">2BD03</text>
<text transform="matrix(6.123234e-17 -1 1 6.123234e-17 70.8139 255.498)" class="st10 st7 st2">2BD04</text>
<text transform="matrix(6.123234e-17 -1 1 6.123234e-17 79.2896 255.498)" class="st10 st7 st2">2BD05</text>
<text transform="matrix(6.123234e-17 -1 1 6.123234e-17 87.726 255.498)" class="st10 st7 st2">2BD06</text>
<text transform="matrix(6.123234e-17 -1 1 6.123234e-17 96.1646 255.498)" class="st10 st7 st2">2BD07</text>
<text transform="matrix(6.123234e-17 -1 1 6.123234e-17 148.2896 256.623)" class="st10 st7 st2">2BD13</text>
<text transform="matrix(6.123234e-17 -1 1 6.123234e-17 139.6646 256.623)" class="st10 st7 st2">2BD12</text>
<text transform="matrix(6.123234e-17 -1 1 6.123234e-17 131.0396 256.623)" class="st10 st7 st2">2BD11</text>
<text transform="matrix(6.123234e-17 -1 1 6.123234e-17 86.2435 176.168)" class="st10 st7 st2">2AT06</text>
<text transform="matrix(6.123234e-17 -1 1 6.123234e-17 104.9935 176.168)" class="st10 st7 st2">2AT08</text>
<text transform="matrix(6.123234e-17 -1 1 6.123234e-17 114.3685 176.168)" class="st10 st7 st2">2AT09</text>
<text transform="matrix(6.123234e-17 -1 1 6.123234e-17 123.7435 176.168)" class="st10 st7 st2">2AT10</text>
<text transform="matrix(6.123234e-17 -1 1 6.123234e-17 132.7435 176.168)" class="st10 st7 st2">2AT11</text>
<text transform="matrix(6.123234e-17 -1 1 6.123234e-17 142.1185 176.168)" class="st10 st7 st2">2AT12</text>
<text transform="matrix(6.123234e-17 -1 1 6.123234e-17 151.307 176.168)" class="st10 st7 st2">2AT13</text>
<text transform="matrix(6.123234e-17 -1 1 6.123234e-17 160.4935 176.168)" class="st13 st7 st2">2AT14</text>
<text transform="matrix(-6.123234e-17 -1 1 -6.123234e-17 260.5541 59.2588)" class="st10 st7 st2">2AE26</text>
<text transform="matrix(-6.123234e-17 -1 1 -6.123234e-17 279.3041 59.2588)" class="st10 st7 st2">2AE28</text>
<text transform="matrix(-6.123234e-17 -1 1 -6.123234e-17 262.8041 89.6514)" class="st10 st7 st2">2AI26</text>
<text transform="matrix(-6.123234e-17 -1 1 -6.123234e-17 272.5541 89.5771)" class="st10 st7 st2">2AI27</text>
<text transform="matrix(-6.123234e-17 -1 1 -6.123234e-17 292.8344 89.7627)" class="st10 st7 st2">2AI30</text>
<text transform="matrix(-6.123234e-17 -1 1 -6.123234e-17 302.5844 89.7627)" class="st10 st7 st2">2AI31</text>
<text transform="matrix(6.123234e-17 -1 1 6.123234e-17 245.6185 113.373)" class="st10 st7 st2">2AL24</text>
<text transform="matrix(6.123234e-17 -1 1 6.123234e-17 254.807 113.5615)" class="st10 st7 st2">2AL25</text>
<text transform="matrix(6.123234e-17 -1 1 6.123234e-17 263.9935 113.5615)" class="st10 st7 st2">2AL26</text>
<text transform="matrix(6.123234e-17 -1 1 6.123234e-17 273.3685 113.5615)" class="st10 st7 st2">2AL27</text>
<text transform="matrix(6.123234e-17 -1 1 6.123234e-17 282.7435 113.5615)" class="st10 st7 st2">2AL28</text>
<text transform="matrix(6.123234e-17 -1 1 6.123234e-17 292.1185 113.5615)" class="st10 st7 st2">2AL29</text>
<text transform="matrix(6.123234e-17 -1 1 6.123234e-17 301.4935 113.373)" class="st10 st7 st2">2AL30</text>
<text transform="matrix(6.123234e-17 -1 1 6.123234e-17 310.8685 113.373)" class="st10 st7 st2">2AL31</text>
<text transform="matrix(1 0 0 1 188.9935 88.2485)" class="st7 st2">2AI18</text>
<text transform="matrix(1 0 0 1 188.9935 79.9985)" class="st7 st2">2AH18</text>
<text transform="matrix(1 0 0 1 188.9935 71.7485)" class="st7 st2">2AG18</text>
<text transform="matrix(1 0 0 1 188.9935 63.4985)" class="st7 st2">2AF18</text>
<text transform="matrix(1 0 0 1 188.9935 55.2485)" class="st7 st2">2AE18</text>
<text transform="matrix(1 0 0 1 188.9935 46.9985)" class="st7 st2">2AD18</text>
<text transform="matrix(-6.123234e-17 -1 1 -6.123234e-17 271.8344 147.9482)" class="st10 st7 st2">2AP27</text>
<text transform="matrix(-6.123234e-17 -1 1 -6.123234e-17 244.0541 90.3232)" class="st10 st7 st2">2AI24</text>
<text transform="matrix(-6.123234e-17 -1 1 -6.123234e-17 163.8041 63.1484)" class="st10 st7 st2">2AE15</text>
<text transform="matrix(6.123234e-17 -1 1 6.123234e-17 165.7435 47.793)" class="st10 st7 st2">2AE15-B</text>
<text transform="matrix(-6.123234e-17 -1 1 -6.123234e-17 154.8041 59.0732)" class="st10 st7 st2">2AE14</text>
<text transform="matrix(-6.123234e-17 -1 1 -6.123234e-17 145.8041 59.0732)" class="st10 st7 st2">2AE13</text>
<text transform="matrix(1 0 0 1 448.3217 216.1089)" class="st0 st14">P</text>
<text transform="matrix(1 0 0 1 448.4915 219.7085)" class="st0 st14">2</text>
<text transform="matrix(1 0 0 1 448.3217 223.3091)" class="st0 st14">B</text>
<text transform="matrix(-6.123234e-17 -1 1 -6.123234e-17 288.679 59.2588)" class="st10 st7 st2">2AE29</text>
<text transform="matrix(-6.123234e-17 -1 1 -6.123234e-17 297.679 59.2588)" class="st10 st7 st2">2AE30</text>
<text transform="matrix(-6.123234e-17 -1 1 -6.123234e-17 307.429 59.2588)" class="st10 st7 st2">2AE31</text>
<text transform="matrix(-6.123234e-17 -1 1 -6.123234e-17 316.804 59.2588)" class="st10 st7 st2">2AE32</text>
<text transform="matrix(-6.123234e-17 -1 1 -6.123234e-17 325.804 59.2588)" class="st10 st7 st2">2AE33</text>
<text transform="matrix(-6.123234e-17 -1 1 -6.123234e-17 270.1165 59.2588)" class="st10 st7 st2">2AE27</text>
<text transform="matrix(1 0 0 1 238.425 406.1656)" class="st0 st1">S</text>
<text transform="matrix(1 0 0 1 238.425 413.3658)" class="st0 st1">t</text>
<text transform="matrix(1 0 0 1 238.425 420.566)" class="st0 st1">u</text>
<text transform="matrix(1 0 0 1 238.425 427.7652)" class="st0 st1">l</text>
<text transform="matrix(1 0 0 1 238.425 434.9654)" class="st0 st1">t</text>
<text transform="matrix(1 0 0 1 238.425 442.1656)" class="st0 st1">z</text>
<text transform="matrix(1 0 0 1 352.0735 406.1656)" class="st0 st1">S</text>
<text transform="matrix(1 0 0 1 352.0735 413.3658)" class="st0 st1">t</text>
<text transform="matrix(1 0 0 1 352.0735 420.566)" class="st0 st1">u</text>
<text transform="matrix(1 0 0 1 352.0735 427.7652)" class="st0 st1">l</text>
<text transform="matrix(1 0 0 1 352.0735 434.9654)" class="st0 st1">t</text>
<text transform="matrix(1 0 0 1 352.0735 442.1656)" class="st0 st1">z</text>
<text transform="matrix(6.123234e-17 -1 1 6.123234e-17 286.179 410.8184)" class="st10 st7 st2">2BW29</text>
<text transform="matrix(6.123234e-17 -1 1 6.123234e-17 295.179 410.8184)" class="st10 st7 st2">2BW30</text>
<text transform="matrix(6.123234e-17 -1 1 6.123234e-17 313.179 410.8184)" class="st10 st7 st2">2BW32</text>
<text transform="matrix(6.123234e-17 -1 1 6.123234e-17 322.179 410.8184)" class="st10 st7 st2">2BW33</text>
<text transform="matrix(-6.123234e-17 -1 1 -6.123234e-17 265.304 421.1006)" class="st0 st5">Win2</text>
<text transform="matrix(-6.123234e-17 -1 1 -6.123234e-17 274.2191 449.2998)" class="st10 st7 st2">2CA28</text>
<text transform="matrix(-6.123234e-17 -1 1 -6.123234e-17 283.2191 449.4512)" class="st10 st7 st2">2CA29</text>
<text transform="matrix(-6.123234e-17 -1 1 -6.123234e-17 292.2191 449.2998)" class="st10 st7 st2">2CA30</text>
<text transform="matrix(-6.123234e-17 -1 1 -6.123234e-17 301.0686 449.4111)" class="st6 st7 st2">2CA31</text>
<text transform="matrix(-6.123234e-17 -1 1 -6.123234e-17 313.4436 449.4111)" class="st6 st7 st2">2CA32</text>
<text transform="matrix(-6.123234e-17 -1 1 -6.123234e-17 322.4436 449.4111)" class="st6 st7 st2">2CA33</text>
<text transform="matrix(6.123234e-17 -1 1 6.123234e-17 304.179 410.8184)" class="st6 st7 st2">2BW31</text>
<text transform="matrix(1 0 0 1 200.9934 442.1509)" class="st6 st7 st2">2CA20</text>
<text transform="matrix(1 0 0 1 200.9934 433.3755)" class="st6 st7 st2">2BZ20</text>
<text transform="matrix(1 0 0 1 200.9934 424.9009)" class="st6 st7 st2">2BY20</text>
<text transform="matrix(1 0 0 1 200.9934 416.2759)" class="st6 st7 st2">2BX20</text>
<text transform="matrix(6.123234e-17 -1 1 6.123234e-17 158.3733 464.8633)" class="st15 st7 st1">PMM125</text>
<text transform="matrix(1 0 0 1 162.6477 467.5601)" class="st16 st7 st1">PMM300</text>
<text transform="matrix(1 0 0 1 374.7336 442.5287)" class="st10 st7 st2">2CA40</text>
<text transform="matrix(1 0 0 1 375.1839 433.9789)" class="st10 st7 st2">2BZ40</text>
<text transform="matrix(1 0 0 1 374.9535 424.979)" class="st10 st7 st2">2BY40</text>
<text transform="matrix(1 0 0 1 374.9535 415.979)" class="st10 st7 st2">2BX40</text>
<text transform="matrix(-6.123234e-17 -1 1 -6.123234e-17 235.8987 99.6992)" class="st0 st2">PDU15A</text>
<text transform="matrix(6.123234e-17 -1 1 6.123234e-17 236.1487 107.668)" class="st0 st2">PDU15B</text>
<text transform="matrix(-6.123234e-17 -1 1 -6.123234e-17 235.8987 126.3975)" class="st0 st2">PDU16A</text>
<text transform="matrix(1 0 0 1 167.4838 96.7182)" class="st10 st7 st2">PDU13-A</text>
<text transform="matrix(1 0 0 1 197.7137 97.4702)" class="st3 st7 st2">PDU13-B</text>
<text transform="matrix(6.123234e-17 -1 1 6.123234e-17 77.6642 196.7686)" class="st6 st7 st2">PDU7A</text>
<text transform="matrix(-6.123234e-17 -1 1 -6.123234e-17 76.384 213.6377)" class="st6 st7 st2">PDU7B</text>
<text transform="matrix(6.123234e-17 -1 1 6.123234e-17 52.4641 74.5186)" class="st7 st2">PDU2-A</text>
<text transform="matrix(-6.123234e-17 -1 1 -6.123234e-17 51.3342 92.7178)" class="st7 st2">PDU2-B</text>
<text transform="matrix(-6.123234e-17 -1 1 -6.123234e-17 313.9691 384.0908)" class="st10 st7 st2">2BS32</text>
<text transform="matrix(-6.123234e-17 -1 1 -6.123234e-17 305.1936 384.1709)" class="st6 st7 st2">2BS31</text>
<text transform="matrix(-6.123234e-17 -1 1 -6.123234e-17 340.969 383.8301)" class="st10 st7 st2">2BS35</text>
<text transform="matrix(-6.123234e-17 -1 1 -6.123234e-17 275.7191 384.0908)" class="st10 st7 st2">2BS28</text>
<text transform="matrix(-6.123234e-17 -1 1 -6.123234e-17 266.9436 383.8301)" class="st6 st7 st2">2BS27</text>
<text transform="matrix(-6.123234e-17 -1 1 -6.123234e-17 258.4691 383.8301)" class="st6 st7 st2">2BS26</text>
<text transform="matrix(6.123234e-17 -1 1 6.123234e-17 88.6642 226.998)" class="st10 st7 st2">2AZ06</text>
<text transform="matrix(-6.123234e-17 -1 1 -6.123234e-17 74.5841 237.7275)" class="st6 st7 st2">PDU7J</text>
<text transform="matrix(6.123234e-17 -1 1 6.123234e-17 74.6534 223.3877)" class="st0 st5">PDU7K</text>
<text transform="matrix(6.123234e-17 -1 1 6.123234e-17 99.3136 226.998)" class="st10 st7 st2">2AZ07</text>
<text transform="matrix(6.123234e-17 -1 1 6.123234e-17 108.9142 226.998)" class="st10 st7 st2">2AZ08</text>
<text transform="matrix(6.123234e-17 -1 1 6.123234e-17 119.5636 227.1865)" class="st10 st7 st2">2AZ09</text>
<text transform="matrix(6.123234e-17 -1 1 6.123234e-17 129.9142 226.627)" class="st10 st7 st2">2AZ11</text>
<text transform="matrix(6.123234e-17 -1 1 6.123234e-17 140.4142 227.1865)" class="st10 st7 st2">2AZ12</text>
<text transform="matrix(6.123234e-17 -1 1 6.123234e-17 150.1642 227.1865)" class="st10 st7 st2">2AZ13</text>
<text transform="matrix(6.123234e-17 -1 1 6.123234e-17 165.9142 256.9785)" class="st10 st7 st2">PDU22</text>
<text transform="matrix(6.123234e-17 -1 1 6.123234e-17 74.7141 175.4189)" class="st0 st5">PDU6</text>
<text transform="matrix(6.123234e-17 -1 1 6.123234e-17 76.9034 146.8877)" class="st0 st5">PDU5-A</text>
<text transform="matrix(-6.123234e-17 1 -1 -6.123234e-17 75.4941 149.8286)" class="st0 st5">PDU5-B</text>
<text transform="matrix(6.123234e-17 -1 1 6.123234e-17 52.1534 117.6377)" class="st0 st5">PDU4-A</text>
<text transform="matrix(-6.123234e-17 1 -1 -6.123234e-17 50.8184 120.2036)" class="st0 st5">PDU4-B</text>
<text transform="matrix(-6.123234e-17 -1 1 -6.123234e-17 86.3839 206.4326)" class="st10 st7 st2">2AW06</text>
<text transform="matrix(-6.123234e-17 -1 1 -6.123234e-17 95.3839 206.6221)" class="st10 st7 st2">2AW07</text>
<text transform="matrix(-6.123234e-17 -1 1 -6.123234e-17 104.2335 206.8076)" class="st10 st7 st2">2AW08</text>
<text transform="matrix(-6.123234e-17 -1 1 -6.123234e-17 113.3839 206.8076)" class="st10 st7 st2">2AW09</text>
<text transform="matrix(-6.123234e-17 -1 1 -6.123234e-17 122.2335 206.8076)" class="st10 st7 st2">2AW10</text>
<text transform="matrix(-6.123234e-17 -1 1 -6.123234e-17 131.2335 206.8076)" class="st10 st7 st2">2AW11</text>
<text transform="matrix(-6.123234e-17 -1 1 -6.123234e-17 140.2335 206.8076)" class="st10 st7 st2">2AW12</text>
<text transform="matrix(-6.123234e-17 -1 1 -6.123234e-17 149.3839 206.8076)" class="st10 st7 st2">2AW13</text>
<text transform="matrix(-6.123234e-17 -1 1 -6.123234e-17 322.9689 383.9404)" class="st10 st7 st2">2BS33</text>
<text transform="matrix(-6.123234e-17 -1 1 -6.123234e-17 331.9689 383.8301)" class="st10 st7 st2">2BS34</text>
<text transform="matrix(6.123234e-17 -1 1 6.123234e-17 331.5538 410.9678)" class="st10 st7 st2">2BW34</text>
<text transform="matrix(1 0 0 1 304.1935 170.4693)" class="st10 st7 st2">2AS32</text>
<text transform="matrix(1 0 0 1 304.1935 182.4693)" class="st10 st7 st2">2AU32</text>
<text transform="matrix(1 0 0 1 257.9588 205.2436)" class="st10 st7 st2">2AX27</text>
<text transform="matrix(1 0 0 1 256.8488 193.2436)" class="st10 st7 st2">2AW27</text>
<text transform="matrix(1 0 0 1 257.7384 181.2436)" class="st10 st7 st2">2AU27</text>
<text transform="matrix(1 0 0 1 257.9588 169.2436)" class="st10 st7 st2">2AS27</text>
<text transform="matrix(1 0 0 1 314.6233 192.3081)" class="st10 st7 st2">Switch</text>
<text transform="matrix(1 0 0 1 314.6233 181.2466)" class="st10 st7 st2">Switch</text>
<text transform="matrix(-6.123234e-17 -1 1 -6.123234e-17 136.8038 85.168)" class="st10 st7 st2">2AH11</text>
<text transform="matrix(-6.123234e-17 -1 1 -6.123234e-17 254.9288 90.9639)" class="st10 st7 st2">2AI25</text>
<text transform="matrix(-6.123234e-17 -1 1 -6.123234e-17 283.0538 89.3877)" class="st10 st7 st2">2AI28</text>
<text transform="matrix(6.123234e-17 -1 1 6.123234e-17 60.3439 53.2734)" class="st10 st7 st2">2AE03</text>
<text transform="matrix(6.123234e-17 -1 1 6.123234e-17 96.6436 53.2734)" class="st10 st7 st2">2AE07</text>
<text transform="matrix(6.123234e-17 -1 1 6.123234e-17 275.7736 411.2783)" class="st10 st7 st2">2BW28</text>
<text transform="matrix(1 0 0 1 292.2617 330.226)" class="st8 st0 st1">30</text>
<text transform="matrix(1 0 0 1 301.2598 330.3003)" class="st8 st0 st1">31</text>
<text transform="matrix(1 0 0 1 304.3135 194.4488)" class="st10 st7 st2">2AW32</text>
<text transform="matrix(1 0 0 1 304.3135 206.523)" class="st10 st7 st2">2AX32</text>
<text transform="matrix(-6.123234e-17 -1 1 -6.123234e-17 245.8839 147.9482)" class="st10 st7 st2">2AP24</text>
<text transform="matrix(-6.123234e-17 -1 1 -6.123234e-17 254.584 147.9482)" class="st10 st7 st2">2AP25</text>
<text transform="matrix(-6.123234e-17 -1 1 -6.123234e-17 263.1339 147.9482)" class="st10 st7 st2">2AP26</text>
<text transform="matrix(-6.123234e-17 -1 1 -6.123234e-17 280.4951 148.0107)" class="st10 st7 st2">2AP28</text>
<text transform="matrix(-6.123234e-17 -1 1 -6.123234e-17 289.1953 148.0107)" class="st10 st7 st2">2AP29</text>
<text transform="matrix(-6.123234e-17 -1 1 -6.123234e-17 306.334 148.1357)" class="st10 st7 st2">2AP31</text>
<text transform="matrix(6.123234e-17 -1 1 6.123234e-17 95.8068 176.168)" class="st10 st7 st2">2AT07</text>
<text transform="matrix(-6.123234e-17 -1 1 -6.123234e-17 293.7189 384.0908)" class="st10 st7 st2">2BS30</text>
<text transform="matrix(6.123234e-17 -1 1 6.123234e-17 156.9142 256.623)" class="st10 st7 st2">2BD14</text>
<text transform="matrix(6.123234e-17 -1 1 6.123234e-17 229.4534 137.8877)" class="st0 st5">PDU17-1</text>
<text transform="matrix(-6.123234e-17 -1 1 -6.123234e-17 236.5842 157.541)" class="st6 st7 st2">PDU17-3</text>
<text transform="matrix(-6.123234e-17 -1 1 -6.123234e-17 229.384 157.541)" class="st6 st7 st2">PDU17-4</text>
<text transform="matrix(6.123234e-17 -1 1 6.123234e-17 236.6536 137.8877)" class="st10 st0 st5">PDU17-2</text>
<text transform="matrix(6.123234e-17 -1 1 6.123234e-17 304.1868 445.4561)" class="st17 st0 st2">Switch</text>
<text transform="matrix(-6.123234e-17 -1 1 -6.123234e-17 284.7191 383.791)" class="st10 st7 st2">2BS29</text>
<text transform="matrix(6.123234e-17 -1 1 6.123234e-17 308.1038 381.7061)" class="st18 st0 st2">Switch</text>
<text transform="matrix(-6.123234e-17 -1 1 -6.123234e-17 331.4436 449.2998)" class="st6 st7 st2">2CA34</text>
<text transform="matrix(-6.123234e-17 -1 1 -6.123234e-17 297.7092 147.9482)" class="st10 st7 st2">2AP30</text>
<text transform="matrix(6.123234e-17 -1 1 6.123234e-17 245.2434 263.292)" class="st10 st7 st2">2BE24</text>
<text transform="matrix(6.123234e-17 -1 1 6.123234e-17 254.2434 263.292)" class="st10 st7 st2">2BE25</text>
<text transform="matrix(6.123234e-17 -1 1 6.123234e-17 263.2434 263.292)" class="st10 st7 st2">2BE26</text>
<text transform="matrix(1 0 0 1 427.6817 183.4087)" class="st0 st1">S</text>
<text transform="matrix(1 0 0 1 427.6817 190.6089)" class="st0 st1">t</text>
<text transform="matrix(1 0 0 1 427.6817 197.8081)" class="st0 st1">u</text>
<text transform="matrix(1 0 0 1 427.6916 205.0083)" class="st0 st1">l</text>
<text transform="matrix(1 0 0 1 427.6817 212.2085)" class="st0 st1">t</text>
<text transform="matrix(1 0 0 1 427.6817 219.4077)" class="st0 st1">z</text>
<text transform="matrix(-6.123234e-17 -1 1 -6.123234e-17 313.0841 89.7627)" class="st10 st7 st2">2AI32</text>
<text transform="matrix(6.123234e-17 -1 1 6.123234e-17 272.6183 263.292)" class="st10 st7 st2">2BE27</text>
<text transform="matrix(6.123234e-17 -1 1 6.123234e-17 281.9933 263.292)" class="st10 st7 st2">2BE28</text>
<text transform="matrix(-6.123234e-17 -1 1 -6.123234e-17 280.0538 298.5127)" class="st10 st7 st2">2BH28</text>
<text transform="matrix(1 0 0 1 244.3038 222.9488)" class="st10 st7 st2">PDU3-A</text>
<text transform="matrix(1 0 0 1 274.7335 222.1587)" class="st10 st7 st2">PDU3-B</text>
<text transform="matrix(1 0 0 1 448.1034 331.6265)" class="st8 st0 st1">47</text>
<text transform="matrix(1 0 0 1 460.1034 331.1732)" class="st8 st0 st1">48</text>
<text transform="matrix(1 0 0 1 472.1034 331.4702)" class="st8 st0 st1">49</text>
<text transform="matrix(1 0 0 1 480.4784 331.4702)" class="st8 st0 st1">50</text>
<text transform="matrix(1 0 0 1 431.6659 380.6732)" class="st9 st0 st1">46</text>
<text transform="matrix(1 0 0 1 415.1034 354.8101)" class="st8 st0 st1">BP</text>
<text transform="matrix(1 0 0 1 414.8534 363.4203)" class="st8 st0 st1">BQ</text>
<text transform="matrix(1 0 0 1 414.8534 372.3706)" class="st8 st0 st1">BR</text>
<text transform="matrix(1 0 0 1 415.1034 379.9196)" class="st8 st0 st1">BS</text>
<text transform="matrix(1 0 0 1 415.3534 388.9196)" class="st8 st0 st1">BT</text>
<text transform="matrix(-6.123234e-17 -1 1 -6.123234e-17 270.7088 298.4014)" class="st10 st7 st2">2BH27</text>
<text transform="matrix(-6.123234e-17 -1 1 -6.123234e-17 261.3338 298.4014)" class="st10 st7 st2">2BH26</text>
<text transform="matrix(-6.123234e-17 -1 1 -6.123234e-17 251.7714 298.4014)" class="st10 st7 st2">2BH25</text>
<text transform="matrix(-6.123234e-17 -1 1 -6.123234e-17 227.2031 280.9404)" class="st6 st7 st2">PDU18-3</text>
<text transform="matrix(-6.123234e-17 -1 1 -6.123234e-17 236.2031 280.5713)" class="st10 st7 st2">PDU18-4</text>
<text transform="matrix(6.123234e-17 -1 1 6.123234e-17 225.7332 256.6514)" class="st0 st5">PDU18-1</text>
<text transform="matrix(6.123234e-17 -1 1 6.123234e-17 234.8464 256.6514)" class="st0 st5">PDU18-2</text>
<text transform="matrix(6.123234e-17 -1 1 6.123234e-17 247.4028 377.5576)" class="st0 st5">Win1</text>
<text transform="matrix(6.123234e-17 -1 1 6.123234e-17 262.4654 443.3691)" class="st0 st5">Win3</text>
<text transform="matrix(6.123234e-17 -1 1 6.123234e-17 143.5932 122.6367)" class="st10 st7 st2">2AM13</text>
<text transform="matrix(1 0 0 1 349.9624 215.7301)" class="st0 st5">PMM-225</text>
<text transform="matrix(-6.123234e-17 -1 1 -6.123234e-17 242.2379 55.4512)" class="st3 st7 st2">PDU14A</text>
<text transform="matrix(-6.123234e-17 -1 1 -6.123234e-17 246.7086 68.2109)" class="st10 st7 st2">PDU14B</text>
<text transform="matrix(1 0 0 1 461.1676 233.3062)" class="st19 st7 st2">2BB48</text>
<text transform="matrix(1 0 0 1 461.1676 244.5562)" class="st19 st7 st2">2BC48</text>
<text transform="matrix(1 0 0 1 461.6977 287.8452)" class="st19 st7 st2">2BG48</text>
<text transform="matrix(6.123234e-17 -1 1 6.123234e-17 250.1333 324.8311)" class="st6 st7 st2">2BL25</text>
<text transform="matrix(6.123234e-17 -1 1 6.123234e-17 259.3579 324.9805)" class="st6 st7 st2">2BL26</text>
<text transform="matrix(6.123234e-17 -1 1 6.123234e-17 268.5836 325.1299)" class="st6 st7 st2">2BL27</text>
<text transform="matrix(6.123234e-17 -1 1 6.123234e-17 277.5836 325.0752)" class="st6 st7 st2">2BL28</text>
<text transform="matrix(6.123234e-17 -1 1 6.123234e-17 289.9136 323.4111)" class="st6 st7 st2">2BL29</text>
<text transform="matrix(1 0 0 1 81.4028 20.2202)" class="st7 st2">PDU1-C</text>
<text transform="matrix(1 0 0 1 188.8379 35.2603)" class="st3 st7 st2">2AC18</text>
<text transform="matrix(1 0 0 1 425.4311 99.9203)" class="st0 st1">S</text>
<text transform="matrix(1 0 0 1 425.4311 107.1206)" class="st0 st1">t</text>
<text transform="matrix(1 0 0 1 425.4311 114.3198)" class="st0 st1">u</text>
<text transform="matrix(1 0 0 1 425.4409 121.52)" class="st0 st1">l</text>
<text transform="matrix(1 0 0 1 425.4311 128.7202)" class="st0 st1">t</text>
<text transform="matrix(1 0 0 1 425.4311 135.9195)" class="st0 st1">z</text>
<text transform="matrix(1 0 0 1 304.7126 220.6206)" class="st10 st7 st2">2AY32</text>
<text transform="matrix(6.123234e-17 -1 1 6.123234e-17 336.1031 265.5596)" class="st0 st5">PDU 9-1</text>
<text transform="matrix(6.123234e-17 -1 1 6.123234e-17 344.9527 265.5596)" class="st0 st5">PDU 9-2</text>
<text transform="matrix(6.123234e-17 -1 1 6.123234e-17 336.5132 291.2617)" class="st0 st5">PDU 9-3</text>
<text transform="matrix(6.123234e-17 -1 1 6.123234e-17 345.5133 291.2617)" class="st0 st5">PDU9-4</text>
<text transform="matrix(-6.123234e-17 -1 1 -6.123234e-17 358.4586 276.6152)" class="st10 st7 st2">2BF37</text>
<text transform="matrix(6.123234e-17 -1 1 6.123234e-17 360.7731 301.1367)" class="st10 st7 st2">2BJ37</text>
<text transform="matrix(-6.123234e-17 -1 1 -6.123234e-17 367.8336 276.8037)" class="st10 st7 st2">2BF38</text>
<text transform="matrix(-6.123234e-17 -1 1 -6.123234e-17 377.0211 276.9902)" class="st10 st7 st2">2BF39</text>
<text transform="matrix(-6.123234e-17 -1 1 -6.123234e-17 386.5836 276.9902)" class="st10 st7 st2">2BF40</text>
<text transform="matrix(-6.123234e-17 -1 1 -6.123234e-17 396.1461 276.9902)" class="st10 st7 st2">2BF41</text>
<text transform="matrix(6.123234e-17 -1 1 6.123234e-17 370.1481 301.3232)" class="st10 st7 st2">2BJ38</text>
<text transform="matrix(6.123234e-17 -1 1 6.123234e-17 379.5231 301.3232)" class="st10 st7 st2">2BJ39</text>
<text transform="matrix(6.123234e-17 -1 1 6.123234e-17 388.8982 301.3232)" class="st10 st7 st2">2BJ40</text>
<text transform="matrix(6.123234e-17 -1 1 6.123234e-17 398.2732 301.3232)" class="st10 st7 st2">2BJ41</text>
<text transform="matrix(6.123234e-17 -1 1 6.123234e-17 338.6529 307.082)" class="st7 st2">2BJ36</text>
<text transform="matrix(1 0 0 1 126.0431 335.521)" class="st0 st5">Critical Bus 2 Panel A</text>
<text transform="matrix(1 0 0 1 130.213 339.4205)" class="st0 st5">Critical Bus 2 Panel B</text>
<text transform="matrix(-6.123234e-17 -1 1 -6.123234e-17 150.6334 91.2256)" class="st10 st0 st1">2AH12</text>
<text transform="matrix(-6.123234e-17 -1 1 -6.123234e-17 160.0084 91.2256)" class="st10 st0 st1">2AH13</text>
<text transform="matrix(-6.123234e-17 -1 1 -6.123234e-17 169.3834 91.4131)" class="st10 st0 st1">2AH14</text>
<text transform="matrix(6.123234e-17 -1 1 6.123234e-17 121.7681 256.5117)" class="st10 st7 st2">2BD10</text>
<text transform="matrix(1 0 0 1 304.3435 232.5103)" class="st10 st7 st2">2BA32</text>
<text transform="matrix(6.123234e-17 -1 1 6.123234e-17 104.1431 255.7617)" class="st10 st7 st2">2BD08</text>
<text transform="matrix(-6.123234e-17 -1 1 -6.123234e-17 242.9586 298.4014)" class="st10 st7 st2">2BH24</text>
<text transform="matrix(1 0 0 1 462.3579 276.5952)" class="st19 st7 st2">2BF48</text>
<text transform="matrix(1 0 0 1 461.5426 255.6704)" class="st19 st7 st2">2BD48</text>
<text transform="matrix(1 0 0 1 462.1383 265.3452)" class="st19 st7 st2">2BE48</text>
</svg>
